<svg xmlns="http://www.w3.org/2000/svg" version="1.1" id="Layer_1" x="0" y="0" width="19" height="22" viewBox="0 0 19 22" xml:space="preserve" enable-background="new 0 0 19 22"><style type="text/css">
  .st0{fill:#FFFFFF;}
</style><title>page-top-icon</title><desc>Created with Sketch.</desc><path class="st0" d="M18.07 8.69L9.81 0.42C9.74 0.35 9.66 0.3 9.57 0.26c-0.18-0.08-0.39-0.08-0.57 0C8.9 0.3 8.82 0.35 8.75 0.42L0.48 8.69c-0.29 0.29-0.29 0.77 0 1.06 0.29 0.29 0.77 0.29 1.06 0l6.98-6.98v17.72c0 0.42 0.34 0.75 0.75 0.75 0.41 0 0.75-0.34 0.75-0.75V2.77l6.98 6.98c0.15 0.15 0.34 0.22 0.53 0.22 0.19 0 0.38-0.07 0.53-0.22C18.37 9.46 18.37 8.98 18.07 8.69z"/></svg>
